<svg xmlns="http://www.w3.org/2000/svg" width="32" height="32" viewBox="0 0 256 256" preserveAspectRatio="xMidYMid meet">
  <g transform="scale(1) translate(-115, -90)">
    <path d="M 351.26 250.445 C 346.916 255.996 339.452 258.051 332.88 255.505 L 283.88 238.115 L 283.59 238.005 C 278.613 236.014 274.964 231.663 273.87 226.415 L 267.66 196.665 C 251.548 191.175 234.067 191.214 217.98 196.775 L 212.08 226.295 C 211.023 231.602 207.354 236.015 202.33 238.025 L 202.04 238.135 L 153.04 255.505 C 151.207 256.22 149.257 256.586 147.29 256.585 C 142.355 256.589 137.695 254.316 134.66 250.425 C 117.43 228.205 119.35 198.715 139.35 178.715 C 195.5 122.585 290.38 122.585 346.53 178.715 C 366.52 198.715 368.45 228.205 351.26 250.445 Z M 338.93 288.585 C 338.93 293.003 335.348 296.585 330.93 296.585 L 154.94 296.585 C 150.521 296.585 146.94 293.003 146.94 288.585 C 146.94 284.167 150.521 280.585 154.94 280.585 L 330.94 280.585 C 335.358 280.585 338.94 284.167 338.94 288.585 Z"
          fill="white"/>
  </g>
</svg>
