<svg xmlns="http://www.w3.org/2000/svg" width="32" height="32" fill="#000000" viewBox="0 0 256 256"><path d="M 144.572 34.184 C 145.714 29.914 150.102 27.38 154.372 28.524 C 184.57 36.403 208.153 59.986 216.032 90.184 C 217.176 94.454 214.642 98.842 210.372 99.984 C 209.696 100.162 209 100.253 208.302 100.254 C 204.677 100.254 201.505 97.817 200.572 94.314 C 194.146 69.662 174.894 50.41 150.242 43.984 C 145.968 42.847 143.428 38.457 144.572 34.184 Z M 142.242 75.984 C 156.032 79.664 164.892 88.524 168.572 102.314 C 169.505 105.817 172.677 108.254 176.302 108.254 C 177 108.253 177.696 108.162 178.372 107.984 C 182.642 106.842 185.176 102.454 184.032 98.184 C 178.912 79.024 165.532 65.644 146.372 60.524 C 140.421 58.935 134.981 64.383 136.58 70.331 C 137.322 73.092 139.48 75.247 142.242 75.984 Z M 224.182 171.334 C 220.493 199.366 196.574 220.305 168.302 220.254 C 88.902 220.254 24.302 155.654 24.302 76.254 C 24.251 47.982 45.191 24.063 73.222 20.374 C 80.259 19.515 87.023 23.389 89.842 29.894 L 110.962 77.044 L 110.962 77.164 C 113.096 82.089 112.619 87.756 109.692 92.254 C 109.512 92.524 109.322 92.774 109.122 93.024 L 88.302 117.704 C 95.792 132.924 111.712 148.704 127.132 156.214 L 151.472 135.504 C 151.711 135.303 151.961 135.117 152.222 134.944 C 156.718 131.946 162.423 131.419 167.392 133.544 L 167.522 133.604 L 214.632 154.714 C 221.149 157.524 225.036 164.29 224.182 171.334 Z M 158.966 176.245 C 179.185 176.315 208.232 169.334 208.192 169.334 L 169.023 179.606 L 138.047 176.523 C 137.811 176.724 125.437 173.112 120.352 170.694 C 101.622 161.644 82.952 143.114 73.892 124.584 C 71.452 119.537 71.831 113.581 74.892 108.884 C 75.061 108.613 75.252 108.356 75.462 108.114 L 96.302 83.404 C 96.302 83.404 92.164 92.042 92.168 92.002 C 72.105 94.62 88.305 176.168 158.966 176.245 Z" fill="white"></path></svg>